Patient4_TMGait_0pt4_03_right_34_EMG.mot
version=1
nRows=26
nColumns=33
inDegrees=no
endheader
time	1LAddLong	2LGlutMax	3LGlutMed	4LIliopsoas	5LSemiMemb	6LBicFemLong	7LRecFem	8LVastMed	9LVastLat	10LGasMed	11LTibAnt	12lTibPost	13LPeroneusLong	14LSol	15LExtDigLong	16LFlexDigLong	17RAddLong	18RGlutMax	19RGlutMed	20RIliopsoas	21RSemiMemb	22RBicFemLong	23RRecFem	24RVastMed	25RVastLat	26RGasMed	27RTibAnt	28RTibPost	29RPeroneusLong	30RSol	31RExtDigLong	32RFlexDigLong
45.225	0.019989	0.050201	0.045776	-0.001068	0.076447	0.18112	0.066681	-0.011597	-0.056305	-0.005798	0.000153	0.013733	0.064392	0.018463	0.005951	0.002441	-0.00061	-0.086823	-0.00473	-0.091095	0.015259	0.012512	-0.1799	-0.005951	0.012512	-0.025787	0.048065	-0.002899	0.046234	0.016937	-0.007477	-0.019836
45.226	0.013428	0.048523	0.072021	0.010376	0.038147	0.16861	0.066833	-0.004578	-0.049133	-0.002594	0.00473	0.009918	0.062103	0.009003	0.001373	-0.001831	-0.002136	-0.071869	0.064392	-0.009766	0.024872	0.016632	-0.18463	0.013275	0.023346	-0.022278	0.055389	-0.002594	0.028229	0.041351	-0.000305	-0.021515
45.227	-0.001068	0.084991	0.080872	0.010071	-0.024567	0.22781	0.042267	-0.005646	0.011292	0.006561	0.002289	0.002441	0.024261	0.004425	0.00412	-0.001678	0.00824	-0.10132	0.28366	0.12878	0.029297	0.036621	-0.21851	-0.013885	0.035553	-0.011444	0.04425	-0.005341	0.032043	0.082397	-0.001678	-0.0177
45.228	-0.007935	0.10162	0.088806	-0.001831	-0.080566	0.23041	-0.028992	0.00061	0.1004	0.003052	0.001984	0.016174	0.019836	-0.000458	0	0.006866	0.001221	-0.060577	0.36133	0.19287	0.047455	0.06134	-0.19928	-0.000153	0.024567	-0.015106	0.049744	-0.003357	-0.011444	0.073547	0.001221	-0.019684
45.229	-0.009613	0.12299	0.049133	0.006409	-0.04303	0.13626	-0.058136	0.006104	0.093842	0.006256	0.003052	0.003967	0.024872	0.005035	0.002136	0.024261	0.00412	-0.10391	0.1564	0.15335	0.052338	0.066223	-0.17792	0.025177	0.021057	-0.020142	0.057831	-0.001526	-0.066376	0.054016	0.000763	-0.014038
45.23	0.006714	0.20233	0.050812	-0.008698	0.01709	0.19226	-0.11887	-0.006866	0.04364	0.007629	0.007477	0.006866	0.030212	0.002594	0.002594	0.005951	0.005493	-0.18845	0.068512	0.069275	0.095215	0.039063	-0.1561	-0.016632	0.00946	0.007782	0.053253	-0.005035	-0.07782	0.066376	0.00061	-0.015106
45.231	0.010681	0.31494	0.031586	0.00412	0.047607	0.19547	-0.16113	-0.007782	0.051727	0.019836	0.001068	0.004272	0.070038	0.012054	0.004272	0.012512	0.005493	-0.17838	-0.007782	0.010071	0.15274	0.030518	-0.20752	-0.036316	-0.001526	0.021515	0.055237	-0.00061	-0.12024	-0.000458	-0.00061	-0.010071
45.232	-0.001526	0.30746	0.055695	0.007935	0.009155	0.19302	-0.11139	-0.007477	0.10239	0.011139	0.000153	0.019989	0.063782	0.043182	0.004578	-0.001526	0.010986	-0.19623	0.11795	-0.004425	0.14023	-0.035095	-0.19836	-0.024109	0.005798	0.021515	0.029602	-0.010223	-0.22079	-0.12558	-0.001526	-0.012512
45.233	0.005188	0.25818	0.03952	0.007324	-0.020447	-0.064392	-0.10254	-0.002594	0.058289	0.004272	0.003815	0.007172	0.036926	0.042114	0.006714	0.000916	0.005646	-0.19455	0.23331	-0.030365	0.13428	-0.058899	-0.17349	-0.053406	0.009918	-0.00412	0.029755	-0.011292	-0.14374	-0.20508	-0.000763	-0.002899
45.234	0.005798	0.26581	0.034485	0.002899	0.010376	-0.2388	-0.027771	-0.000458	-0.033264	0.001068	0.00351	0.016937	0.023804	0.034485	0.003204	0.018616	0.003204	-0.18799	0.28275	-0.068665	0.1329	-0.027466	-0.20081	-0.037994	-0.00061	-0.00412	0.040588	0.012817	0.007172	-0.19012	-0.005951	-0.008087
45.235	0.009155	0.20752	0.16617	0.009766	0.031738	-0.19592	-0.028076	-0.00351	-0.18249	-0.00061	-0.014496	0.013733	0.044403	0.052185	-0.002136	0.018768	0.005798	-0.18784	0.2739	-0.055389	0.13962	-0.034637	-0.19257	-0.015869	0.004425	0.003815	0.049286	0.00824	0.033875	-0.16556	0	-0.009155
45.236	0.022278	0.15198	0.15396	0.001984	0.053101	-0.1712	-0.052338	-0.009308	-0.2179	0.000153	0.001831	0.016174	0.029907	0.053864	-0.002441	0.022278	0.005341	-0.18524	0.17349	-0.011444	0.1387	-0.028076	-0.22064	-0.025482	0.002289	-0.009766	0.061646	-0.000458	-0.028992	-0.13657	0	-0.008392
45.237	0.02655	0.1268	0.12497	-0.002899	0.12329	-0.065918	-0.11368	-0.008392	-0.23865	0.015869	0.004578	0.01297	0.059662	0.034637	-0.006714	0.012512	0.008545	-0.1384	-0.042572	-0.032043	0.1358	0.005493	-0.22263	-0.034637	0.002289	-0.018005	0.112	0.001373	0.042725	-0.063324	0.001831	-0.0177
45.238	0.018158	0.082397	0.083008	-0.015411	0.11169	0.056	-0.099487	-0.024261	-0.14389	0.008698	0.003967	0.013428	0.10925	0.042572	-0.008392	0.009766	0.004578	-0.17273	-0.12512	-0.005341	0.11871	0.014801	-0.23254	-0.011749	0.010376	-0.026703	0.1828	-0.001678	0.12268	-0.098267	0.00061	-0.022888
45.239	0.011139	0.048981	0.050354	-0.006561	0.10529	-0.035553	-0.05188	-0.028076	-0.05188	0.006409	-0.002136	0.022278	0.059357	0.050354	0.001526	0.001526	0.008545	-0.17822	0.043182	-0.040741	0.09903	0.008545	-0.22522	-0.007629	-0.003662	-0.018616	0.15396	-0.003357	0.12772	-0.19196	0.000763	-0.026703
45.24	-0.005035	-0.032043	0.010529	0.016174	0.072937	0.087738	-0.0383	-0.03952	-0.027771	0.011292	0.007324	0.018768	0.070801	0.033569	-0.018005	0.005341	0.002594	-0.1442	0.17502	-0.15381	0.13779	0.018311	-0.24277	0.014496	0.006714	-0.015106	0.097046	-0.005035	-0.084991	0.014496	0.000153	-0.027466
45.241	-0.016174	-0.1294	-0.014648	0.009003	0.009766	0.060577	-0.039063	-0.030212	-0.062714	0.018463	0.001526	0.019531	0.07019	0.029755	-0.014343	0.016937	0.006866	-0.1149	0.16968	-0.082245	0.19043	0.001373	-0.2681	0.013428	-0.007019	-0.002747	-0.092468	-0.00885	-0.46402	0.19562	-0.001831	-0.025787
45.242	-0.019989	-0.21149	-0.059052	0.028687	-0.033264	0.10788	-0.18936	-0.00412	-0.038605	0.024719	0.001678	0.023499	0.065918	0.028534	-0.013428	-0.001373	-0.002899	-0.079193	0.11643	-0.047302	0.15381	-0.001068	-0.27206	0.023956	-0.006409	-0.007477	-0.1268	-0.005646	-0.73532	0.16876	-0.002136	-0.018005
45.243	-0.032654	-0.21316	-0.078125	0.002289	-0.103	0.16098	-0.082703	-0.010071	0.000916	0.006104	-0.003357	0.017853	0.082703	0.033417	-0.01358	0.017853	-0.006409	-0.12741	0.31433	0.021515	0.13886	-0.017395	-0.24445	0.002136	-0.011597	-0.005341	0	0.00061	-0.7843	0.12238	-0.003967	-0.023651
45.244	-0.049286	-0.15457	-0.084839	-0.007324	-0.11627	0.040283	0.089722	0.006714	0.092163	0.002899	-0.004425	0.016632	0.13168	0.012054	-0.012207	0.013428	0.003204	-0.1268	0.063477	-0.13397	0.14496	-0.056	-0.27771	-0.032043	-0.004883	-0.002136	-0.08194	-0.001526	0.64346	0.093231	0.00061	-0.011139
45.245	-0.045776	-0.093842	-0.062256	-0.016327	-0.12405	-0.19791	0.10513	0.007172	0.13199	0.020752	-0.011139	0.026398	0.11414	0.028839	-0.006409	0.010529	0.007629	-0.092468	0.067444	-0.15137	0.1535	-0.0737	-0.22614	-0.04715	-0.011139	-0.004272	-0.14465	-0.001373	0.59784	0.13153	0.001221	-0.009003
45.246	-0.023346	-0.080109	-0.044403	-0.018158	-0.09201	-0.2359	0.026855	0.003967	0.15091	0.010681	0.000763	0.024872	0.011139	0.060272	0.018311	0.008087	0.019226	-0.079803	0.45273	-0.11475	0.15366	-0.040588	-0.19623	-0.062714	-0.009766	-0.011902	0.10254	0.000153	0.11993	0.1358	-0.000305	-0.018768
45.247	-0.003662	-0.043945	-0.026093	-0.005951	-0.065918	-0.16586	-0.01709	-0.000916	0.20477	0.00473	0.003052	0.024109	0.020294	0.065613	0.011292	0.00824	0.014191	-0.15778	0.4364	-0.052338	0.13473	0.001678	-0.2327	-0.037231	-0.011292	-0.009766	0.13382	0.002594	-0.15091	0.026855	-0.007477	-0.013885
45.248	0.031433	-0.061951	-0.024719	0.001373	0.034485	-0.072479	-0.061493	-0.007629	0.29419	-0.013885	0.00885	0.026398	0.012665	0.080414	-0.003662	0.012207	0.000305	-0.14664	0.058136	-0.017242	0.086823	0.04425	-0.23727	0.01236	-0.016479	-0.001373	0.045776	-0.003662	0.36118	-0.093689	0.000763	-0.016174
45.249	0.035553	-0.072174	-0.020294	0.008545	0.13016	0.023499	-0.055389	-0.010986	0.31586	-0.000458	0.000763	0.02243	0.015106	0.079193	-0.026398	-0.000305	-0.002289	-0.17853	-0.011444	0.003052	0.11841	0.061188	-0.25497	0.016632	-0.006866	0.001831	0.083466	-0.00824	0.72403	-0.16174	0.004883	-0.015259
45.25	0.038757	-0.092773	-0.016632	0.01709	0.12375	0.10498	-0.070496	-0.019073	0.26291	0.005035	0.006104	0.038452	0.057983	0.072021	-0.036926	0.004578	0.007477	-0.14252	0.046082	0.09613	0.17777	0.020599	-0.2243	-0.012054	-0.007935	0.00061	0.063934	-0.001678	0.56992	-0.19104	0.002136	-0.016479
